# xmcd CD database file
#
# Track frame offsets:
#	300
#	22914
#	40921
#	63635
#	83860
#	106770
#	122902
#	144397
#	159745
#
# Disc length: 2419 seconds
#
# Revision: 1
# Processed by: cddbd v1.5.2PL0 Copyright (c) Steve Scherf et al.
# Submitted via: CDex 1.70beta2
#
DISCID=74096f09
DTITLE=Kota-rocK - Birth of Fire
DYEAR=2009
DGENRE=東方アレンジ
TTITLE0=亡き王女の為のセプテット
TTITLE1=向こう側の月
TTITLE2=シンデレラケージ　～Kagome-Kagome
TTITLE3=彼岸帰航　～Riverside View
TTITLE4=天狗が見ている　～ Black Eyes
TTITLE5=衛星カフェテラス
TTITLE6=明治十七年の上海アリス
TTITLE7=風神少女
TTITLE8=幽玄の槭樹　～ Eternal Dream
EXTD=YEAR: 2009
EXTT0=
EXTT1=
EXTT2=
EXTT3=
EXTT4=
EXTT5=
EXTT6=
EXTT7=
EXTT8=
PLAYORDER=
